<?xml version="1.0" standalone="no"?>
<!DOCTYPE svg PUBLIC "-//W3C//DTD SVG 20010904//EN"
 "http://www.w3.org/TR/2001/REC-SVG-20010904/DTD/svg10.dtd">
<svg version="1.0" xmlns="http://www.w3.org/2000/svg"
 width="1024.000000pt" height="1024.000000pt" viewBox="0 0 1024.000000 1024.000000"
 preserveAspectRatio="xMidYMid meet">

<g transform="translate(0.000000,1024.000000) scale(0.100000,-0.100000)"
fill="#000000" stroke="none">
<path d="M0 5120 l0 -5120 5120 0 5120 0 0 5120 0 5120 -5120 0 -5120 0 0
-5120z m3906 1865 c15 -12 70 -98 127 -200 54 -99 177 -317 272 -485 162 -287
222 -392 517 -915 128 -227 135 -250 97 -312 -55 -89 -172 -82 -232 14 -23 37
-239 421 -572 1018 -244 437 -335 598 -353 618 -14 15 -43 17 -329 17 -172 0
-313 -2 -313 -5 0 -8 421 -761 725 -1295 89 -157 273 -481 407 -720 428 -758
408 -724 415 -704 2 5 35 66 74 135 39 68 167 296 285 506 117 210 282 502
365 650 190 335 366 650 665 1188 128 231 243 435 254 453 40 63 33 62 634 62
l545 0 20 -26 c12 -15 21 -38 21 -51 0 -13 -52 -120 -116 -236 -150 -272 -855
-1526 -1152 -2047 -79 -140 -175 -309 -212 -375 -37 -66 -112 -196 -165 -290
-53 -93 -178 -314 -277 -490 -256 -454 -255 -453 -288 -470 -42 -21 -348 -22
-390 0 -38 20 -48 35 -185 285 -64 118 -181 328 -260 465 -137 241 -330 582
-501 885 -44 80 -150 267 -234 415 -84 149 -207 367 -273 485 -66 118 -177
316 -247 440 -368 654 -504 906 -504 937 0 18 8 41 19 53 18 20 23 20 576 18
542 -3 558 -4 585 -23z"/>
<path d="M6483 6718 c-11 -13 -129 -221 -263 -463 -277 -502 -474 -857 -665
-1195 -73 -129 -173 -307 -222 -395 -50 -88 -188 -333 -307 -544 -119 -211
-215 -387 -214 -391 22 -50 230 -410 250 -431 35 -39 84 -40 120 -1 14 15 85
133 158 262 72 129 156 276 184 325 53 90 92 159 371 650 338 596 410 724 565
1000 89 160 241 430 338 600 96 171 206 366 245 435 38 69 76 135 84 148 l13
22 -318 0 c-318 0 -319 0 -339 -22z"/>
</g>
</svg>
